<?xml version="1.0" encoding="UTF-8"?>
<!DOCTYPE svg PUBLIC "-//W3C//DTD SVG 1.1//EN" "http://www.w3.org/Graphics/SVG/1.1/DTD/svg11.dtd">
<!-- Creator: CorelDRAW 2021.5 -->
<svg xmlns="http://www.w3.org/2000/svg" xml:space="preserve" width="9.03063in" height="15in" version="1.1" style="shape-rendering:geometricPrecision; text-rendering:geometricPrecision; image-rendering:optimizeQuality; fill-rule:evenodd; clip-rule:evenodd"
viewBox="0 0 13681.84 22725.72"
 xmlns:xlink="http://www.w3.org/1999/xlink"
 xmlns:xodm="http://www.corel.com/coreldraw/odm/2003">
 <defs>
  <style type="text/css">
   <![CDATA[
    .fil0 {fill:#CB1F49}
   ]]>
  </style>
 </defs>
 <g id="Layer_x0020_1">
  <metadata id="CorelCorpID_0Corel-Layer"/>
  <path class="fil0" d="M7304.69 10583.43l0 6396.44 -927.58 0 0 -2357.6c0,-83.75 -508.88,-405.82 -599.06,-470.24 -83.74,-57.98 -148.15,-103.06 -225.45,-154.6l-856.72 -611.95 1056.41 -760.09c77.3,-57.98 624.83,-399.37 624.83,-483.11l0 -6396.44 908.26 0c51.54,219.01 19.33,2016.2 19.33,2396.25 70.85,19.33 51.54,25.76 103.06,64.41l1359.17 979.12c70.85,45.1 161.04,96.62 199.69,154.6l-1462.23 1069.3c-51.52,32.21 -199.69,115.95 -199.69,173.93l-0.01 -0.02zm0 -7008.39l-5282.05 0 0 8316.02c0,77.3 -637.71,502.45 -734.33,566.86 -180.36,115.95 -1185.24,876.04 -1288.3,901.82 19.33,64.41 6.44,32.21 45.1,64.41l1481.56 1062.85c51.54,38.65 496,328.52 496,392.93l0 7845.78 4354.48 0 0 -3575.04 5282.05 0 0 -8270.93c0,-57.98 51.54,-83.74 96.62,-115.95 51.54,-38.65 83.74,-64.41 128.84,-96.62 45.09,-32.2 83.74,-51.52 128.83,-90.19 270.55,-225.45 1591.06,-1140.16 1668.37,-1256.09l-1764.98 -1262.54c-57.98,-45.1 -238.33,-141.71 -238.33,-212.57l0 -7845.78 -4373.8 0 0 3575.04 -0.04 0z"/>
 </g>
</svg>
